<?xml version="1.0" encoding="utf-8"?>
<svg version="1.1" xmlns="http://www.w3.org/2000/svg" xmlns:xlink="http://www.w3.org/1999/xlink" x="0px" y="0px"
	 viewBox="0 0 204.9 204.9" style="enable-background:new 0 0 204.9 204.9;" xml:space="preserve">
<style type="text/css">
	.st0{fill:#b3bacb;}
</style>
<g id="XMLID_1_">
	<circle id="XMLID_2_" class="st0" cx="157.2" cy="157.2" r="47.7"/>
	<path id="XMLID_5_" class="st0" d="M141.9,74.4l-12.8,12.8c2.5,4,1.9,9.4-1.6,12.9c-3.5,3.5-9,4.2-13,1.7l-12.8,12.8l5.6,5.6
		c4,4,4,10.5,0,14.5c-4,4-10.5,4-14.5,0l-3.4-3.4L76,143.5l47.4,47.4l67.5-67.5L141.9,74.4z"/>
	<path id="XMLID_3_" class="st0" d="M26.1,39.2L2.7,15.8c-3.6-3.6-3.6-9.5,0-13.1l0,0c3.6-3.6,9.5-3.6,13.1,0l23.4,23.4
		c3.6,3.6,3.6,9.5,0,13.1l0,0C35.6,42.8,29.8,42.8,26.1,39.2z"/>
	<path id="XMLID_4_" class="st0" d="M116.2,74.3l20.1,20.1c3.5,3.5,9.3,3.5,12.8,0l0,0c3.5-3.5,3.5-9.3,0-12.8L129,61.5
		c-3.5-3.5-9.3-3.5-12.8,0l0,0C112.7,65,112.7,70.8,116.2,74.3z"/>
	<path id="XMLID_7_" class="st0" d="M73.2,86l36.5,36.5c3.5,3.5,9.3,3.5,12.8,0l0,0c3.5-3.5,3.5-9.3,0-12.8L86,73.2
		c-3.5-3.5-9.3-3.5-12.8,0l0,0C69.6,76.7,69.6,82.4,73.2,86z"/>
	<path id="XMLID_8_" class="st0" d="M76.3,143.8l6,6c3.5,3.5,9.3,3.5,12.8,0l0,0c3.5-3.5,3.5-9.3,0-12.8l-6-6
		c-3.5-3.5-9.3-3.5-12.8,0h0C72.8,134.5,72.8,140.2,76.3,143.8z"/>
	<path id="XMLID_6_" class="st0" d="M54.7,122.7L31.2,99.3c-3.6-3.6-3.6-9.5,0-13.1l0,0c3.6-3.6,9.5-3.6,13.1,0l23.4,23.4
		c3.6,3.6,3.6,9.5,0,13.1l0,0C64.1,126.3,58.3,126.3,54.7,122.7z"/>
	<path id="XMLID_9_" class="st0" d="M95.7,54.1L79.3,37.7c-3.6-3.6-3.6-9.5,0-13.1l0,0c3.6-3.6,9.5-3.6,13.1,0L108.8,41
		c3.6,3.6,3.6,9.5,0,13.1l0,0C105.2,57.7,99.3,57.7,95.7,54.1z"/>
	<path id="XMLID_10_" class="st0" d="M53.1,66.2l-7.5-7.5c-3.6-3.6-3.6-9.5,0-13.1l0,0c3.6-3.6,9.5-3.6,13.1,0l7.5,7.5
		c3.6,3.6,3.6,9.5,0,13.1l0,0C62.6,69.8,56.7,69.8,53.1,66.2z"/>
</g>
</svg>
